<svg width="324" height="168" viewBox="0 0 324 168" fill="none" xmlns="http://www.w3.org/2000/svg">
<g opacity="0.05" filter="url(#filter0_f_2_325)">
<rect x="49" y="49" width="226" height="70" rx="14" fill="black"/>
</g>
<g filter="url(#filter1_d_2_325)">
<rect x="49" y="42" width="226" height="70" rx="8" fill="#FFFDFA"/>
</g>
<path d="M114.307 83.2727L117.46 88.4034V92H118.517V88.4034L121.67 83.2727H120.46L118.04 87.3466H117.938L115.517 83.2727H114.307ZM124.634 92.1364C126.407 92.1364 127.6 90.7898 127.6 88.7614C127.6 86.7159 126.407 85.3693 124.634 85.3693C122.862 85.3693 121.668 86.7159 121.668 88.7614C121.668 90.7898 122.862 92.1364 124.634 92.1364ZM124.634 91.233C123.288 91.233 122.674 90.0739 122.674 88.7614C122.674 87.4489 123.288 86.2727 124.634 86.2727C125.981 86.2727 126.594 87.4489 126.594 88.7614C126.594 90.0739 125.981 91.233 124.634 91.233ZM133.26 89.3239C133.26 90.5511 132.323 91.1136 131.573 91.1136C130.738 91.1136 130.141 90.5 130.141 89.5455V85.4545H129.135V89.6136C129.135 91.2841 130.022 92.0852 131.249 92.0852C132.238 92.0852 132.885 91.5568 133.192 90.892H133.26V92H134.266V85.4545H133.26V89.3239ZM136.108 92H137.114V87.858C137.114 86.9716 137.812 86.3239 138.767 86.3239C139.036 86.3239 139.312 86.375 139.381 86.392V85.3693C139.266 85.3608 139.001 85.3523 138.852 85.3523C138.068 85.3523 137.386 85.7955 137.148 86.4432H137.08V85.4545H136.108V92ZM145.874 92.1534C147.016 92.1534 147.613 91.5398 147.817 91.1136H147.868V92H148.874V87.6875C148.874 85.608 147.289 85.3693 146.453 85.3693C145.465 85.3693 144.34 85.7102 143.828 86.9034L144.783 87.2443C145.005 86.767 145.529 86.2557 146.488 86.2557C147.412 86.2557 147.868 86.7457 147.868 87.5852V87.6193C147.868 88.1051 147.374 88.0625 146.181 88.2159C144.966 88.3736 143.641 88.642 143.641 90.142C143.641 91.4205 144.63 92.1534 145.874 92.1534ZM146.027 91.25C145.226 91.25 144.647 90.892 144.647 90.1932C144.647 89.4261 145.346 89.1875 146.13 89.0852C146.556 89.0341 147.698 88.9148 147.868 88.7102V89.6307C147.868 90.4489 147.221 91.25 146.027 91.25ZM153.369 92.1364C154.817 92.1364 155.772 91.25 155.942 90.0909H154.937C154.749 90.8068 154.153 91.233 153.369 91.233C152.175 91.233 151.408 90.2443 151.408 88.7273C151.408 87.2443 152.192 86.2727 153.369 86.2727C154.255 86.2727 154.783 86.8182 154.937 87.4148H155.942C155.772 86.1875 154.732 85.3693 153.352 85.3693C151.579 85.3693 150.403 86.767 150.403 88.7614C150.403 90.7216 151.528 92.1364 153.369 92.1364ZM160.072 92.1364C161.521 92.1364 162.475 91.25 162.646 90.0909H161.64C161.452 90.8068 160.856 91.233 160.072 91.233C158.879 91.233 158.112 90.2443 158.112 88.7273C158.112 87.2443 158.896 86.2727 160.072 86.2727C160.958 86.2727 161.487 86.8182 161.64 87.4148H162.646C162.475 86.1875 161.435 85.3693 160.055 85.3693C158.282 85.3693 157.106 86.767 157.106 88.7614C157.106 90.7216 158.231 92.1364 160.072 92.1364ZM166.775 92.1364C168.548 92.1364 169.741 90.7898 169.741 88.7614C169.741 86.7159 168.548 85.3693 166.775 85.3693C165.002 85.3693 163.809 86.7159 163.809 88.7614C163.809 90.7898 165.002 92.1364 166.775 92.1364ZM166.775 91.233C165.428 91.233 164.815 90.0739 164.815 88.7614C164.815 87.4489 165.428 86.2727 166.775 86.2727C168.121 86.2727 168.735 87.4489 168.735 88.7614C168.735 90.0739 168.121 91.233 166.775 91.233ZM175.401 89.3239C175.401 90.5511 174.463 91.1136 173.713 91.1136C172.878 91.1136 172.282 90.5 172.282 89.5455V85.4545H171.276V89.6136C171.276 91.2841 172.162 92.0852 173.39 92.0852C174.378 92.0852 175.026 91.5568 175.333 90.892H175.401V92H176.407V85.4545H175.401V89.3239ZM179.254 88.0625C179.254 86.9205 179.962 86.2727 180.925 86.2727C181.858 86.2727 182.425 86.8821 182.425 87.9091V92H183.43V87.8409C183.43 86.1705 182.54 85.3693 181.214 85.3693C180.226 85.3693 179.612 85.8125 179.305 86.4773H179.22V85.4545H178.249V92H179.254V88.0625ZM188.115 85.4545H186.717V83.8864H185.711V85.4545H184.723V86.3068H185.711V90.3977C185.711 91.5398 186.632 92.0852 187.484 92.0852C187.859 92.0852 188.098 92.017 188.234 91.9659L188.029 91.0625C187.944 91.0795 187.808 91.1136 187.586 91.1136C187.143 91.1136 186.717 90.9773 186.717 90.125V86.3068H188.115V85.4545ZM194.929 92.1534C196.071 92.1534 196.667 91.5398 196.872 91.1136H196.923V92H197.929V87.6875C197.929 85.608 196.343 85.3693 195.508 85.3693C194.52 85.3693 193.395 85.7102 192.883 86.9034L193.838 87.2443C194.059 86.767 194.583 86.2557 195.542 86.2557C196.467 86.2557 196.923 86.7457 196.923 87.5852V87.6193C196.923 88.1051 196.429 88.0625 195.235 88.2159C194.021 88.3736 192.696 88.642 192.696 90.142C192.696 91.4205 193.684 92.1534 194.929 92.1534ZM195.082 91.25C194.281 91.25 193.701 90.892 193.701 90.1932C193.701 89.4261 194.4 89.1875 195.184 89.0852C195.61 89.0341 196.752 88.9148 196.923 88.7102V89.6307C196.923 90.4489 196.275 91.25 195.082 91.25ZM202.423 92.1364C203.872 92.1364 204.827 91.25 204.997 90.0909H203.991C203.804 90.8068 203.207 91.233 202.423 91.233C201.23 91.233 200.463 90.2443 200.463 88.7273C200.463 87.2443 201.247 86.2727 202.423 86.2727C203.31 86.2727 203.838 86.8182 203.991 87.4148H204.997C204.827 86.1875 203.787 85.3693 202.406 85.3693C200.634 85.3693 199.457 86.767 199.457 88.7614C199.457 90.7216 200.582 92.1364 202.423 92.1364ZM209.314 85.4545H207.916V83.8864H206.911V85.4545H205.922V86.3068H206.911V90.3977C206.911 91.5398 207.831 92.0852 208.683 92.0852C209.058 92.0852 209.297 92.017 209.433 91.9659L209.229 91.0625C209.143 91.0795 209.007 91.1136 208.786 91.1136C208.342 91.1136 207.916 90.9773 207.916 90.125V86.3068H209.314V85.4545ZM210.827 92H211.832V85.4545H210.827V92ZM211.338 84.3636C211.73 84.3636 212.054 84.0568 212.054 83.6818C212.054 83.3068 211.73 83 211.338 83C210.946 83 210.622 83.3068 210.622 83.6818C210.622 84.0568 210.946 84.3636 211.338 84.3636ZM219.027 85.4545H217.936L216.129 90.6705H216.061L214.254 85.4545H213.163L215.583 92H216.606L219.027 85.4545ZM222.081 92.1534C223.223 92.1534 223.82 91.5398 224.024 91.1136H224.075V92H225.081V87.6875C225.081 85.608 223.496 85.3693 222.661 85.3693C221.672 85.3693 220.547 85.7102 220.036 86.9034L220.99 87.2443C221.212 86.767 221.736 86.2557 222.695 86.2557C223.619 86.2557 224.075 86.7457 224.075 87.5852V87.6193C224.075 88.1051 223.581 88.0625 222.388 88.2159C221.173 88.3736 219.848 88.642 219.848 90.142C219.848 91.4205 220.837 92.1534 222.081 92.1534ZM222.234 91.25C221.433 91.25 220.854 90.892 220.854 90.1932C220.854 89.4261 221.553 89.1875 222.337 89.0852C222.763 89.0341 223.905 88.9148 224.075 88.7102V89.6307C224.075 90.4489 223.428 91.25 222.234 91.25ZM229.763 85.4545H228.365V83.8864H227.36V85.4545H226.371V86.3068H227.36V90.3977C227.36 91.5398 228.28 92.0852 229.132 92.0852C229.507 92.0852 229.746 92.017 229.882 91.9659L229.678 91.0625C229.593 91.0795 229.456 91.1136 229.235 91.1136C228.792 91.1136 228.365 90.9773 228.365 90.125V86.3068H229.763V85.4545ZM233.95 92.1364C235.279 92.1364 236.251 91.4716 236.558 90.483L235.586 90.2102C235.331 90.892 234.738 91.233 233.95 91.233C232.77 91.233 231.956 90.4702 231.909 89.0682H236.66V88.642C236.66 86.2045 235.211 85.3693 233.848 85.3693C232.075 85.3693 230.899 86.767 230.899 88.7784C230.899 90.7898 232.058 92.1364 233.95 92.1364ZM231.909 88.1989C231.977 87.1804 232.697 86.2727 233.848 86.2727C234.939 86.2727 235.637 87.0909 235.637 88.1989H231.909ZM240.662 92.1364C241.923 92.1364 242.349 91.3523 242.571 90.9943H242.69V92H243.662V83.2727H242.656V86.4943H242.571C242.349 86.1534 241.957 85.3693 240.679 85.3693C239.025 85.3693 237.883 86.6818 237.883 88.7443C237.883 90.8239 239.025 92.1364 240.662 92.1364ZM240.798 91.233C239.537 91.233 238.889 90.125 238.889 88.7273C238.889 87.3466 239.52 86.2727 240.798 86.2727C242.025 86.2727 242.673 87.2614 242.673 88.7273C242.673 90.2102 242.008 91.233 240.798 91.233Z" fill="#696D76"/>
<path d="M123.719 65.2536C123.406 62.9915 121.666 61.679 119.409 61.679C116.749 61.679 114.746 63.6179 114.746 66.9091C114.746 70.1953 116.724 72.1392 119.409 72.1392C121.83 72.1392 123.436 70.5732 123.719 68.6293L121.86 68.6193C121.626 69.8125 120.652 70.4837 119.434 70.4837C117.783 70.4837 116.6 69.2457 116.6 66.9091C116.6 64.6122 117.773 63.3345 119.439 63.3345C120.677 63.3345 121.646 64.0355 121.86 65.2536H123.719ZM128.66 72.1491C130.897 72.1491 132.319 70.5732 132.319 68.2116C132.319 65.8452 130.897 64.2642 128.66 64.2642C126.423 64.2642 125.001 65.8452 125.001 68.2116C125.001 70.5732 126.423 72.1491 128.66 72.1491ZM128.67 70.7074C127.432 70.7074 126.825 69.6037 126.825 68.2067C126.825 66.8097 127.432 65.6911 128.67 65.6911C129.888 65.6911 130.494 66.8097 130.494 68.2067C130.494 69.6037 129.888 70.7074 128.67 70.7074ZM135.646 67.5256C135.646 66.4219 136.312 65.7855 137.262 65.7855C138.192 65.7855 138.749 66.397 138.749 67.4162V72H140.548V67.1378C140.553 65.3082 139.509 64.2642 137.933 64.2642C136.79 64.2642 136.004 64.8111 135.656 65.6612H135.567V64.3636H133.847V72H135.646V67.5256ZM145.699 75.0227C147.762 75.0227 149.283 74.0781 149.283 72.1243V64.3636H147.509V65.6264H147.409C147.136 65.0746 146.564 64.2642 145.217 64.2642C143.452 64.2642 142.065 65.6463 142.065 68.157C142.065 70.6477 143.452 71.8906 145.212 71.8906C146.519 71.8906 147.131 71.1896 147.409 70.6278H147.499V72.0746C147.499 73.1982 146.753 73.6605 145.729 73.6605C144.645 73.6605 144.168 73.1484 143.949 72.701L142.328 73.0938C142.656 74.1626 143.755 75.0227 145.699 75.0227ZM145.714 70.4787C144.526 70.4787 143.899 69.554 143.899 68.147C143.899 66.7599 144.516 65.7408 145.714 65.7408C146.872 65.7408 147.509 66.7003 147.509 68.147C147.509 69.6037 146.862 70.4787 145.714 70.4787ZM151.128 72H152.928V67.5107C152.928 66.5412 153.658 65.8551 154.648 65.8551C154.951 65.8551 155.329 65.9098 155.483 65.9595V64.304C155.319 64.2741 155.036 64.2543 154.837 64.2543C153.962 64.2543 153.231 64.7514 152.952 65.6364H152.873V64.3636H151.128V72ZM158.726 72.1541C159.924 72.1541 160.64 71.5923 160.968 70.951H161.028V72H162.758V66.8892C162.758 64.8707 161.112 64.2642 159.655 64.2642C158.05 64.2642 156.817 64.9801 156.419 66.3722L158.099 66.6108C158.278 66.0888 158.785 65.6413 159.665 65.6413C160.501 65.6413 160.958 66.0689 160.958 66.8196V66.8494C160.958 67.3665 160.416 67.3913 159.069 67.5355C157.587 67.6946 156.17 68.1371 156.17 69.8572C156.17 71.3587 157.269 72.1541 158.726 72.1541ZM159.193 70.8317C158.442 70.8317 157.905 70.4886 157.905 69.8274C157.905 69.1364 158.507 68.848 159.312 68.7337C159.785 68.669 160.729 68.5497 160.963 68.3608V69.2607C160.963 70.1108 160.277 70.8317 159.193 70.8317ZM168.381 64.3636H166.874V62.5341H165.074V64.3636H163.991V65.7557H165.074V70.0014C165.064 71.4382 166.108 72.1442 167.461 72.1044C167.973 72.0895 168.326 71.9901 168.52 71.9254L168.216 70.5185C168.117 70.5433 167.913 70.5881 167.689 70.5881C167.237 70.5881 166.874 70.429 166.874 69.7031V65.7557H168.381V64.3636ZM174.753 68.7884C174.753 69.9517 173.923 70.5284 173.127 70.5284C172.262 70.5284 171.685 69.9169 171.685 68.9474V64.3636H169.886V69.2259C169.886 71.0604 170.93 72.0994 172.431 72.0994C173.575 72.0994 174.38 71.4979 174.728 70.6428H174.808V72H176.553V64.3636H174.753V68.7884ZM180.203 61.8182H178.403V72H180.203V61.8182ZM184.251 72.1541C185.449 72.1541 186.165 71.5923 186.493 70.951H186.553V72H188.283V66.8892C188.283 64.8707 186.637 64.2642 185.181 64.2642C183.575 64.2642 182.342 64.9801 181.944 66.3722L183.625 66.6108C183.804 66.0888 184.311 65.6413 185.191 65.6413C186.026 65.6413 186.483 66.0689 186.483 66.8196V66.8494C186.483 67.3665 185.941 67.3913 184.594 67.5355C183.113 67.6946 181.696 68.1371 181.696 69.8572C181.696 71.3587 182.794 72.1541 184.251 72.1541ZM184.718 70.8317C183.968 70.8317 183.431 70.4886 183.431 69.8274C183.431 69.1364 184.032 68.848 184.838 68.7337C185.31 68.669 186.255 68.5497 186.488 68.3608V69.2607C186.488 70.1108 185.802 70.8317 184.718 70.8317ZM193.906 64.3636H192.4V62.5341H190.6V64.3636H189.516V65.7557H190.6V70.0014C190.59 71.4382 191.634 72.1442 192.986 72.1044C193.498 72.0895 193.851 71.9901 194.045 71.9254L193.742 70.5185C193.642 70.5433 193.439 70.5881 193.215 70.5881C192.762 70.5881 192.4 70.429 192.4 69.7031V65.7557H193.906V64.3636ZM195.411 72H197.211V64.3636H195.411V72ZM196.316 63.2798C196.888 63.2798 197.355 62.8423 197.355 62.3054C197.355 61.7635 196.888 61.326 196.316 61.326C195.739 61.326 195.272 61.7635 195.272 62.3054C195.272 62.8423 195.739 63.2798 196.316 63.2798ZM202.392 72.1491C204.63 72.1491 206.051 70.5732 206.051 68.2116C206.051 65.8452 204.63 64.2642 202.392 64.2642C200.155 64.2642 198.733 65.8452 198.733 68.2116C198.733 70.5732 200.155 72.1491 202.392 72.1491ZM202.402 70.7074C201.164 70.7074 200.558 69.6037 200.558 68.2067C200.558 66.8097 201.164 65.6911 202.402 65.6911C203.62 65.6911 204.227 66.8097 204.227 68.2067C204.227 69.6037 203.62 70.7074 202.402 70.7074ZM209.379 67.5256C209.379 66.4219 210.045 65.7855 210.994 65.7855C211.924 65.7855 212.481 66.397 212.481 67.4162V72H214.281V67.1378C214.286 65.3082 213.242 64.2642 211.666 64.2642C210.522 64.2642 209.737 64.8111 209.389 65.6612H209.299V64.3636H207.579V72H209.379V67.5256ZM222.146 66.3821C221.897 65.0895 220.863 64.2642 219.073 64.2642C217.234 64.2642 215.981 65.169 215.986 66.581C215.981 67.6946 216.667 68.4304 218.134 68.7337L219.436 69.0071C220.137 69.1612 220.465 69.4446 220.465 69.8771C220.465 70.3991 219.899 70.7919 219.044 70.7919C218.218 70.7919 217.681 70.4339 217.527 69.7479L215.772 69.9169C215.996 71.3189 217.174 72.1491 219.048 72.1491C220.958 72.1491 222.305 71.1598 222.31 69.7131C222.305 68.6243 221.604 67.9581 220.162 67.6449L218.86 67.3665C218.084 67.1925 217.776 66.924 217.781 66.4815C217.776 65.9645 218.347 65.6065 219.098 65.6065C219.928 65.6065 220.366 66.0589 220.505 66.5611L222.146 66.3821Z" fill="#212832"/>
<rect x="64" y="57" width="40" height="40" rx="6" fill="#4AB5E3"/>
<circle cx="84" cy="77" r="10" fill="white"/>
<path d="M79 77L82.5 80.5L89 74" stroke="#4AB5E3" stroke-linecap="round" stroke-linejoin="round"/>
<defs>
<filter id="filter0_f_2_325" x="0" y="0" width="324" height="168" filterUnits="userSpaceOnUse" color-interpolation-filters="sRGB">
<feFlood flood-opacity="0" result="BackgroundImageFix"/>
<feBlend mode="normal" in="SourceGraphic" in2="BackgroundImageFix" result="shape"/>
<feGaussianBlur stdDeviation="24.5" result="effect1_foregroundBlur_2_325"/>
</filter>
<filter id="filter1_d_2_325" x="15" y="22" width="294" height="138" filterUnits="userSpaceOnUse" color-interpolation-filters="sRGB">
<feFlood flood-opacity="0" result="BackgroundImageFix"/>
<feColorMatrix in="SourceAlpha" type="matrix" values="0 0 0 0 0 0 0 0 0 0 0 0 0 0 0 0 0 0 127 0" result="hardAlpha"/>
<feOffset dy="14"/>
<feGaussianBlur stdDeviation="17"/>
<feComposite in2="hardAlpha" operator="out"/>
<feColorMatrix type="matrix" values="0 0 0 0 0 0 0 0 0 0 0 0 0 0 0 0 0 0 0.07 0"/>
<feBlend mode="normal" in2="BackgroundImageFix" result="effect1_dropShadow_2_325"/>
<feBlend mode="normal" in="SourceGraphic" in2="effect1_dropShadow_2_325" result="shape"/>
</filter>
</defs>
</svg>
